<?xml version="1.0" standalone="no"?>
<!DOCTYPE svg PUBLIC "-//W3C//DTD SVG 1.1//EN" "http://www.w3.org/Graphics/SVG/1.1/DTD/svg11.dtd" >
<svg>
<metadata>
Created by FontForge 20090914 at Tue Dec 29 10:36:52 2015
 By www-data
</metadata>
<defs>
<font id="AcehDarusalam" horiz-adv-x="357" >
  <font-face 
    font-family="Aceh Darusalam"
    font-weight="400"
    font-stretch="normal"
    units-per-em="1000"
    panose-1="2 0 5 6 0 0 0 2 0 4"
    ascent="800"
    descent="-200"
    x-height="455.998"
    cap-height="538.998"
    bbox="-103 -267 580.998 757.999"
    underline-thickness="50"
    underline-position="-50"
    unicode-range="U+0020-U+007A"
  />
<missing-glyph 
 />
    <glyph glyph-name=".notdef" 
 />
    <glyph glyph-name="space" unicode=" " 
 />
    <glyph glyph-name="comma" unicode="," horiz-adv-x="205" 
d="M169 250l-8.99805 -28.001c-2.66699 -8 -4.66699 -15.333 -6 -22c-2 -6.66699 -3.83301 -14.5 -5.5 -23.5s-3.83398 -19.5 -6.50098 -31.5c-19.333 10.667 -35 20.334 -47 29.001l-41 32l7 29.5c2 8.33301 4 16.166 6 23.499s4.66699 15.5 8 24.5l11 30.5l19.5 -17
c6.33301 -5.33301 13.166 -10.666 20.499 -15.999c4 -3.33301 9.66699 -7.5 17 -12.5z" />
    <glyph glyph-name="period" unicode="." horiz-adv-x="224" 
d="M188 250l-8.99805 -28.001c-2.66699 -8 -4.66699 -15.333 -6 -22c-2 -6.66699 -3.83301 -14.5 -5.5 -23.5s-3.83398 -19.5 -6.50098 -31.5c-19.333 10.667 -35 20.334 -47 29.001l-41 32l7 29.5c2 8.33301 4 16.166 6 23.499s4.66699 15.5 8 24.5l11 30.5l19.5 -17
c6.33301 -5.33301 13.166 -10.666 20.499 -15.999c4 -3.33301 9.66699 -7.5 17 -12.5z" />
    <glyph glyph-name="zero" unicode="0" horiz-adv-x="353" 
d="M337 435c0 -50 -15 -91 -45 -123c-34 -37.333 -82 -56 -144 -56c-34.667 0 -62 6 -82 18c-23.333 13.333 -35 33.333 -35 60c0 24.667 6.33301 56 19 94c14 43.333 31.333 79.333 52 108c25.333 34.667 51 52 77 52c33.333 0 68 -17.333 104 -52
c36 -34 54 -67.667 54 -101zM305 389c0 16 -11.667 34 -35 54c-20 16 -44.333 30.333 -73 43c-28 11.333 -48 17 -60 17c-18.667 0 -34.667 -12.667 -48 -38c-10.667 -22.667 -16 -43.667 -16 -63c0 -24 10 -41.333 30 -52c18.667 -10 45.667 -15 81 -15
c36 0 65 5.33301 87 16c22.667 10 34 22.667 34 38z" />
    <glyph glyph-name="one" unicode="1" horiz-adv-x="217" 
d="M191 361c0 -26 -2.00098 -56 -6.00098 -90c-0.666992 -4 -2 -13.667 -4 -29l-8 -61h-15v20c0 10 0.333008 23.333 1 40c0 62 -8.33301 119 -25 171c-6.66699 21.333 -14.5 41.5 -23.5 60.5s-19.167 37.833 -30.5 56.5c-5.33301 9.33301 -12.166 19.333 -20.499 30
l-28.5 36l42 93c22.667 -26.667 41 -52 55 -76c20 -33.333 35 -68.333 45 -105c12 -44 18 -92.667 18 -146z" />
    <glyph glyph-name="two" unicode="2" horiz-adv-x="411" 
d="M177 256l11.499 -0.00195312c4.33301 0 9.16602 -0.333008 14.499 -1s10 -1 14 -1h10h19c8 0 16.5 0.333008 25.5 1s17.833 1.16699 26.5 1.5s16 1.16602 22 2.49902c7.33301 1.33301 16 2.83301 26 4.5s21.667 3.83398 35 6.50098
c-10.667 -32.667 -21.334 -53.667 -32.001 -63c-13.333 -12.667 -27.833 -21.167 -43.5 -25.5s-31.167 -6.33301 -46.5 -6s-30 1.83301 -44 4.5s-25.667 4.66699 -35 6c-19.333 2.66699 -37.333 4.33398 -54 5.00098s-34.667 -0.333008 -54 -3
c-17.333 -2 -29.666 -3 -36.999 -3l16 74c24 4 49.5 12.5 76.5 25.5s53.167 28.5 78.5 46.5s48.5 37.833 69.5 59.5s37.333 43 49 64s17.667 41 18 60s-7.83398 34.833 -24.501 47.5c-13.333 10.667 -29.166 19.667 -47.499 27s-37.5 13.333 -57.5 18s-40 8.16699 -60 10.5
s-38 3.5 -54 3.5h-80l-2 4l98 69h25c26 0 51 -0.833008 75 -2.5s46.333 -4.83398 67 -9.50098s39 -11.167 55 -19.5s29 -19.166 39 -32.499c14 -19.333 21.833 -39.833 23.5 -61.5s-1.16602 -43.667 -8.49902 -66s-18.166 -44.666 -32.499 -66.999s-30.5 -43.5 -48.5 -63.5
c-21.333 -24.667 -44 -47 -68 -67s-45.667 -36.333 -65 -49z" />
    <glyph glyph-name="three" unicode="3" horiz-adv-x="282" 
d="M269 274l-28.9971 -93.0029c-28.667 0 -55.334 2 -80.001 6c-33.333 4.66699 -61 12.334 -83 23.001c-25.333 13.333 -38 29.333 -38 48c0 16 5.33301 34 16 54l18.5 25c7 9.33301 15.167 19 24.5 29l22.5 22l35.5 34l-39.5 15.5l-39.5 15.5
c-30.667 12.667 -46 26.667 -46 42c0 23.333 11.333 50.333 34 81c9.33301 12 20.166 24.667 32.499 38s27.166 27.666 44.499 42.999l37.5 32c13 10.667 26.833 21.334 41.5 32.001l-15 -89c-34 -12 -57 -21 -69 -27c-27.333 -13.333 -41 -25.666 -41 -36.999
c0 -8.66699 11.667 -18.667 35 -30l66 -24c23.333 -10 35 -18.667 35 -26c0 -10 -10.333 -25.667 -31 -47l-30 -30.5l-29 -30.5c-20.667 -22.667 -31 -40.667 -31 -54c0 -14.667 21 -27 63 -37c14 -3.33301 28.833 -6.16602 44.5 -8.49902s32.5 -4.5 50.5 -6.5z" />
    <glyph glyph-name="four" unicode="4" horiz-adv-x="391" 
d="M257 421c-4 -1.33301 -8.66699 -2.49902 -14 -3.49902l-16 -3c-5.33301 -1 -10.166 -2 -14.499 -3s-7.16602 -1.5 -8.49902 -1.5c-11.333 -2 -21.5 -3.66699 -30.5 -5s-17.167 -2 -24.5 -2c-47.333 0 -78 5 -92 15c-12 6.66699 -18 22 -18 46
c0 36 -1.33301 71.333 -4 106s-4 68.667 -4 102l25 2c2 -8 2.5 -21.167 1.5 -39.5s0.166992 -37 3.5 -56s10.666 -35.667 21.999 -50s30.666 -21.833 57.999 -22.5c20.667 0 41.5 1.83301 62.5 5.5s38.5 6.83398 52.5 9.50098c0.666992 0 1.66699 0.166992 3 0.5
s2.66602 0.5 3.99902 0.5c2 22.667 4.33301 45.167 7 67.5s5 44.5 7 66.5c4.66699 1.33301 9.66699 2.5 15 3.5l18 3.5c-2.66699 -15.333 -4.66699 -28.833 -6 -40.5s-2.66602 -21.5 -3.99902 -29.5c-4 -26 -6 -48.667 -6 -68c0 -50 4.33301 -91 13 -123
c3.33301 -13.333 7.5 -25.833 12.5 -37.5s10.833 -23.167 17.5 -34.5c2.66699 -4 7 -9.83301 13 -17.5l23 -29.5l-17 -102c-10 6 -18.5 12.167 -25.5 18.5s-13.167 12.166 -18.5 17.499c-17.333 18 -30.333 41 -39 69c-5.33301 16.667 -9.33301 35.167 -12 55.5
s-4 43.166 -4 68.499v11z" />
    <glyph glyph-name="five" unicode="5" horiz-adv-x="400" 
d="M137 592c18.667 -11.333 39.168 -26.668 61.501 -46.001s43.833 -40.666 64.5 -63.999c16.667 -19.333 32 -39.5 46 -60.5s24.5 -42.167 31.5 -63.5s9.66699 -42.333 8 -63s-9.16699 -40.334 -22.5 -59.001c-9.33301 -12.667 -21.666 -22.834 -36.999 -30.501
s-32.833 -13.667 -52.5 -18s-41 -7.33301 -64 -9s-46.833 -2.5 -71.5 -2.5h-24l-92 65l2 5h74c15.333 0 32.333 1 51 3s37.5 5.33301 56.5 10s37.167 10.334 54.5 17.001s32.666 15 45.999 25c15.333 12 23 27.167 23 45.5s-5.66699 37.5 -17 57.5s-27 40.167 -47 60.5
s-42 39.166 -66 56.499s-48.833 32.166 -74.5 44.499s-49.834 20.5 -72.501 24.5l-15 70c7.33301 0 19 -1 35 -3c18 -2.66699 35 -3.66699 51 -3s33 2.33398 51 5.00098c8.66699 1.33301 19.667 3.33301 33 6s27.5 4.16699 42.5 4.5s30 -1.5 45 -5.5s28.5 -12 40.5 -24
c9.33301 -10 19.666 -30.333 30.999 -61c-12.667 2.66699 -23.667 4.83398 -33 6.50098l-25 4.5c-5.33301 0.666992 -12.166 1.33398 -20.499 2.00098s-16.666 1.16699 -24.999 1.5l-24 1c-7.66699 0.333008 -13.834 0.5 -18.501 0.5c-2.66699 0 -6 -0.166992 -10 -0.5
s-8.66699 -0.5 -14 -0.5c-5.33301 -0.666992 -9.83301 -1.16699 -13.5 -1.5s-7.16699 -0.5 -10.5 -0.5h2z" />
    <glyph glyph-name="six" unicode="6" horiz-adv-x="279" 
d="M61 633l49.0039 83.001c23.333 -25.333 34 -59 32 -101c-0.666992 -34.667 -12.667 -94 -36 -178c10.667 1.33301 19.667 2 27 2h19c5.33301 -0.666992 10.166 -1.33398 14.499 -2.00098s9.16602 -1.66699 14.499 -3c30 -8 52.333 -20.667 67 -38
c14 -16.667 18 -37 12 -61c-5.33301 -18 -15.333 -38.333 -30 -61c-20 -30 -41 -52.333 -63 -67c-30.667 -19.333 -61 -24.666 -91 -15.999c-22.667 6 -37 22.667 -43 50c-2 11.333 -2.66699 24.666 -2 39.999s3 33 7 53c2 12 5.16699 27 9.5 45l15.5 62
c6 33.333 10.167 61.5 12.5 84.5s2.83301 41.833 1.5 56.5c-0.666992 6.66699 -2.33398 14.167 -5.00098 22.5s-6.33398 17.833 -11.001 28.5zM89.0039 363.001c-7.33301 -25.333 -9.33301 -45.334 -6 -60.001c4 -20 17 -33 39 -39c16.667 -5.33301 34.667 -3.33301 54 6
c18.667 8 29.667 17.333 33 28c2.66699 12 -2 23 -14 33c-12.667 10.667 -28.334 18.334 -47.001 23.001c-8.66699 2 -19 4 -31 6c-11.333 0.666992 -20.666 1.66699 -27.999 3z" />
    <glyph glyph-name="seven" unicode="7" horiz-adv-x="343" 
d="M327 282l-17.001 -100.998c-19.333 12 -34 23.667 -44 35c-16.667 18.667 -29 41.334 -37 68.001c-10.667 32 -16 73 -16 123v26c0 8.66699 0.666992 17.667 2 27c0 2.66699 0.833008 11.334 2.5 26.001l7.5 63l-19 -3.5l-13 -2.5c-22 -4 -40 -6 -54 -6
c-46 0 -76.333 4.66699 -91 14c-11.333 7.33301 -17 22.666 -17 45.999v18.5c0 7 0.333008 15.5 1 25.5s1.16699 18.667 1.5 26s0.5 13.666 0.5 18.999l15 2c6.66699 -17.333 13.667 -28.333 21 -33c13.333 -11.333 36 -17 68 -17c23.333 0 49.666 3 78.999 9
c3.33301 0.666992 9 1.66699 17 3s18.333 3.66602 31 6.99902c-2.66699 -15.333 -4.66699 -28.833 -6 -40.5s-2.66602 -21.167 -3.99902 -28.5c-4 -26 -6 -48.667 -6 -68c0 -48.667 4.33301 -89 13 -121c6 -26.667 16 -50.334 30 -71.001
c2.66699 -3.33301 6.83398 -9 12.501 -17s13.167 -17.667 22.5 -29z" />
    <glyph glyph-name="eight" unicode="8" horiz-adv-x="328" 
d="M207 215c-21.333 -3.33301 -43.3359 3.00098 -66.0029 19.001s-43 35.333 -61 58c-14.667 18.667 -26.5 37.5 -35.5 56.5s-13.5 35.167 -13.5 48.5c0 11.333 12.667 23 38 35l33 12l32 12l-29 28.5l-19 18.5c-16 18 -27.667 33 -35 45c-8.66699 14.667 -13 29.667 -13 45
s10.333 28.333 31 39c34.667 17.333 67.834 21.166 99.501 11.499s59.167 -25.834 82.5 -48.501c19.333 -19.333 34.5 -40.333 45.5 -63s16.5 -43.667 16.5 -63c0 -11.333 -12.667 -23 -38 -35c-11.333 -4 -22.166 -8.16699 -32.499 -12.5s-21.166 -8.5 -32.499 -12.5
c11.333 -11.333 21 -20.666 29 -27.999s14.333 -13.333 19 -18c8 -8.66699 14.833 -16.667 20.5 -24s10.5 -14.333 14.5 -21c8.66699 -14.667 13 -29.667 13 -45s-10.333 -28.333 -31 -39c-16 -8.66699 -38.667 -15 -68 -19zM189.997 574.001
c-7.33301 -1.33301 -14.332 -2.50098 -20.999 -3.50098s-13.334 -2.16699 -20.001 -3.5c-34.667 -8 -52 -18.333 -52 -31c0 -10.667 8.66699 -25.667 26 -45l12 -12.5l13 -13.5c2 6.66699 11.333 13.334 28 20.001l27.5 10l27.5 10c18.667 8 28 16.333 28 25
s-11 18.667 -33 30l-14 5.5zM196.998 400c-2 -5.33301 -11.668 -11.667 -29.001 -19l-27 -10l-27 -10c-19.333 -8.66699 -29 -17 -29 -25c0 -9.33301 11.333 -19.333 34 -30c3.33301 -1.33301 7.83301 -3.33301 13.5 -6s12.834 -5.66699 21.501 -9l21 4l20 4
c35.333 8 53 18.333 53 31c0 9.33301 -8.66699 24.333 -26 45c-4.66699 4 -9 8.16699 -13 12.5z" />
    <glyph glyph-name="nine" unicode="9" horiz-adv-x="277" 
d="M233 264l-49.002 -82.001c-24 24 -35 57.333 -33 100c2 36 14 95.333 36 178c-10 -0.666992 -18.833 -1.16699 -26.5 -1.5s-14.167 -0.166016 -19.5 0.500977c-5.33301 0 -10.166 0.333008 -14.499 1s-8.83301 1.66699 -13.5 3c-30.667 8 -53 20.667 -67 38
c-14.667 18 -18.667 38.667 -12 62c4 16 13.667 36 29 60c20 30 41.333 52.333 64 67c28.667 20 58.667 25.667 90 17c24 -6 38.333 -23 43 -51c4 -23.333 2.66699 -54 -4 -92l-10 -45.5c-4 -17.667 -9.33301 -38.167 -16 -61.5c-11.333 -67.333 -16 -114.333 -14 -141
c0.666992 -12 6.33398 -29.333 17.001 -52zM203.998 533.999c6.66699 26 8.66895 46.332 6.00195 60.999c-4 20 -17 33 -39 39c-16.667 4 -34.334 2 -53.001 -6s-29.667 -17.667 -33 -29c-3.33301 -12 1 -23 13 -33s27.667 -17.333 47 -22c8 -2.66699 18.333 -4.66699 31 -6
c6.66699 -1.33301 12.167 -2.16602 16.5 -2.49902s8.16602 -0.833008 11.499 -1.5z" />
    <glyph glyph-name="colon" unicode=":" horiz-adv-x="194" 
d="M185 268l-32 -63l-71 36l32 63zM182 472l-33 -63l-70 36l32 63l71 -36v0z" />
    <glyph glyph-name="semicolon" unicode=";" horiz-adv-x="194" 
d="M185 268l-32 -63l-71 36l32 63zM182 472l-33 -63l-70 36l32 63l71 -36v0z" />
    <glyph glyph-name="A" unicode="A" horiz-adv-x="439" 
d="M39 181l-104.999 0.000976562l-1 75h104c0 19.333 7.66699 46 23 80c11.333 24 27.333 51.333 48 82c18 -4 39.333 -14.667 64 -32c26 -19.333 47.667 -41.333 65 -66c13.333 -20 27.666 -34.667 42.999 -44c20.667 -13.333 44 -20 70 -20h66v-75h-67
c-33.333 0 -59 3.66699 -77 11c-18 8.66699 -35 23 -51 43c-11.333 -8.66699 -23 -16.334 -35 -23.001s-25 -12.667 -39 -18c-23.333 -8.66699 -45 -13 -65 -13h-26h-17zM86.001 266.001l3.99902 -6c16.667 2 34.334 7.66699 53.001 17c19.333 9.33301 34 19.333 44 30
c-4 7.33301 -7.83301 13.5 -11.5 18.5s-7.16699 9.16699 -10.5 12.5c-9.33301 9.33301 -21 16 -35 20c-12 -16 -20.667 -30 -26 -42c-8 -18 -14 -34.667 -18 -50z" />
    <glyph glyph-name="B" unicode="B" horiz-adv-x="568" 
d="M477 256h86v-75h-629l-1 75h64c19.333 0 38 2.66699 56 8c19.333 6 41.666 16.667 66.999 32c5.33301 14 9.33301 27.667 12 41c3.33301 15.333 5 29.333 5 42c0 30.667 -3 64.667 -9 102c-2 13.333 -4.66699 28 -8 44l-11 52c-2.66699 9.33301 -5.5 19.833 -8.5 31.5
l-9.5 38.5l-27 13c2 17.333 5 34 9 50c2 8 4.33301 16 7 24s5.66699 15.667 9 23c4.66699 -13.333 15.334 -24 32.001 -32c12.667 -6 29.667 -10 51 -12c-1.33301 -14.667 -2.5 -26.667 -3.5 -36s-1.83301 -16 -2.5 -20c-1.33301 -4.66699 -2.5 -9.5 -3.5 -14.5
s-2.5 -10.167 -4.5 -15.5c-3.33301 0 -8.66602 1.33301 -15.999 4l-6 2c5.33301 -17.333 10.166 -34.666 14.499 -51.999s8.16602 -35 11.499 -53c6 -35.333 9 -65 9 -89c0 -21.333 -2 -44.333 -6 -69c-0.666992 -4.66699 -1.66699 -10.334 -3 -17.001l-5 -24l62 35.5
c16 9 27.667 15.167 35 18.5c42.667 20 79.334 30 110.001 30c38.667 0 67.667 -11.333 87 -34c17.333 -20 26 -49.667 26 -89v-34zM409 289c0 14.667 -7.66699 25.999 -23 33.999c-16 7.33301 -37.667 11 -65 11c-19.333 0 -43.666 -4.66699 -72.999 -14
c-11.333 -3.33301 -22.833 -7.66602 -34.5 -12.999s-23.834 -11.333 -36.501 -18l-29 -16c-10 -5.33301 -19.667 -11 -29 -17h188c68 0 102 11 102 33z" />
    <glyph glyph-name="C" unicode="C" horiz-adv-x="521" 
d="M-65 181l-1 75.002h111c6 0 14.5 4.66699 25.5 14l41.5 37c46 41.333 78.333 68.666 97 81.999c40.667 28.667 75.667 43 105 43c30.667 0 55.334 -9.33301 74.001 -28c14 -13.333 25 -30.333 33 -51c-15.333 2 -30 3 -44 3c-24.667 0 -48.334 -4 -71.001 -12
c-20 -6.66699 -43 -18.334 -69 -35.001l-33.5 -23l-41.5 -30h353v-75h-580zM236 87.002l69 37l34 -63l-71 -37z" />
    <glyph glyph-name="D" unicode="D" horiz-adv-x="584" 
d="M96 289c0 -22 34 -32.999 102 -32.999h188l-29.5 17l-28.5 16c-12.667 6.66699 -25 12.667 -37 18s-23.667 9.66602 -35 12.999c-28 9.33301 -52 14 -72 14c-28 0 -50 -3.66699 -66 -11c-14.667 -8 -22 -19.333 -22 -34zM-66 256.001l91.9961 -0.00195312v34
c0 38 9 67.667 27 89c19.333 22.667 48.333 34 87 34c30 0 66.667 -10 110 -30c14 -7.33301 46 -25.333 96 -54c-1.33301 9.33301 -2.66602 17.333 -3.99902 24s-2.66602 12.334 -3.99902 17.001c-5.33301 32 -8.16602 66.333 -8.49902 103s-2.16602 71 -5.49902 103
l-4.5 33l-5.5 39l-25 16c2.66699 8.66699 5.16699 17.167 7.5 25.5s4.83301 16.166 7.5 23.499c3.33301 8 6.83301 15.667 10.5 23l11.5 22c3.33301 -14 12.666 -26 27.999 -36c11.333 -6.66699 27.666 -12.667 48.999 -18l-8 -36c-2 -9.33301 -3.66699 -15.666 -5 -18.999
c-2 -8.66699 -6 -18.334 -12 -29.001c-1.33301 0 -3.16602 0.666992 -5.49902 2s-5.5 2.66602 -9.5 3.99902l-6 3c4.66699 -24 7.83398 -46.167 9.50098 -66.5s2.5 -40.166 2.5 -59.499s-0.333008 -39 -1 -59s-1 -41.667 -1 -65c0 -6.66699 0.333008 -13.5 1 -20.5
s2 -14.167 4 -21.5c2.66699 -13.333 6.66699 -27 12 -41c12.667 -7.33301 24.5 -13.666 35.5 -18.999s21.5 -9.66602 31.5 -12.999c18 -5.33301 36.333 -8 55 -8h66v-75h-639l-1 75h2z" />
    <glyph glyph-name="E" unicode="E" horiz-adv-x="342" 
d="M326 181h-368.001l-1 76l100 -1v37c0 60.667 7.66699 114 23 160c19.333 55.333 46.666 83 81.999 83c26 0 47 -16.667 63 -50c14 -30 21 -65 21 -105c0 -23.333 -7.66699 -40.666 -23 -51.999c-12.667 -10.667 -29.667 -16 -51 -16
c-5.33301 0 -10.666 0.333008 -15.999 1s-11.666 2 -18.999 4c-4 1.33301 -8.83301 2.66602 -14.5 3.99902s-12.167 3.33301 -19.5 6c-6 -22 -9 -46 -9 -72h230zM241.999 673l-34 -63l-69 38l32 62zM142.999 634l-33 -63l-70 37l32 63zM126.999 406
c3.33301 -2.66699 6.83398 -4.83301 10.501 -6.5s7.5 -3.16699 11.5 -4.5c6.66699 -2 13.667 -3 21 -3c25.333 0 38 11.333 38 34c0 10 -2.33301 17.667 -7 23c-4.66699 6.66699 -11.334 10 -20.001 10c-10.667 0 -22 -7.33301 -34 -22c-9.33301 -10 -16 -20.333 -20 -31z
" />
    <glyph glyph-name="F" unicode="F" horiz-adv-x="406" 
d="M384 181l-193.003 -0.000976562c18.667 -8.66699 34.334 -21 47.001 -37c16.667 -19.333 25 -41 25 -65c0 -22 -3.66699 -40.333 -11 -55c-7.33301 -16 -20.666 -24 -39.999 -24c-35.333 0 -67 11.667 -95 35c-35.333 29.333 -52.666 67.333 -51.999 114l1 32h-134l-1 75
h147c10 26.667 21 51.667 33 75c16.667 30 32.667 53.667 48 71c20 21.333 38.333 32 55 32c8 0 15.667 -7.66699 23 -23c6.66699 -15.333 10 -32 10 -50c0 -26 -6.33301 -46.667 -19 -62c-8.66699 -9.33301 -32 -23.666 -70 -42.999h224zM204.997 328.999
c0 27.333 -5.66699 40.999 -17 40.999c-13.333 0 -28.333 -13.667 -45 -41l-15 -25.5c-6 -10.333 -13 -23.166 -21 -38.499c26.667 6.66699 49 15.667 67 27c20.667 12.667 31 25 31 37zM221.997 85.998c0 22 -17.001 44.001 -51.001 66.001c-27.333 17.333 -54 28 -80 32
c0 -31.333 7.33301 -57.333 22 -78c18.667 -24.667 46.334 -37 83.001 -37c7.33301 0 13.333 1.33301 18 4c5.33301 3.33301 8 7.66602 8 12.999z" />
    <glyph glyph-name="G" unicode="G" horiz-adv-x="519" 
d="M357 578l-34 -62l-69 37l32 62zM405 256l89.0039 -0.00683594v-75h-85v-67c0 -26 -6 -49.333 -18 -70s-28 -38.167 -48 -52.5s-42.5 -25.666 -67.5 -33.999s-50.5 -12.833 -76.5 -13.5c-21.333 -1.33301 -42.333 0.333984 -63 5.00098s-39.667 12.334 -57 23.001
c-38 22.667 -57 59.334 -57 110.001c0 14.667 1 31 3 49s5 34.667 9 50h-100l-1 76h125c4 10.667 7.16699 18.334 9.5 23.001l12.5 24l18 -10l-11.5 -28.5c-3.66699 -9 -6.83398 -17.5 -9.50098 -25.5c-8.66699 -22 -14.334 -40.333 -17.001 -55c-4 -19.333 -6 -38 -6 -56
c0 -19.333 3.83301 -37.166 11.5 -53.499s19.5 -29.166 35.5 -38.499c13.333 -7.33301 28.666 -12.666 45.999 -15.999s35 -4.33301 53 -3c20.667 1.33301 41.5 5.16602 62.5 11.499s39.667 14.833 56 25.5s29.666 23.334 39.999 38.001s15.5 30.667 15.5 48v19
c0 5.33301 -0.333008 9.66602 -1 12.999c-0.666992 0.666992 -1 1.66699 -1 3h-39h-33c-26 0 -46.667 5.66699 -62 17c-20 14 -30 34.667 -30 62c0 32 8.66699 63.333 26 94c18 33.333 40.333 50 67 50c34 0 61 -23 81 -69c10 -24 17 -50.333 21 -79zM256.004 534.993
l-33 -63l-70 36l32 63zM343.004 250.993c-1.33301 7.33301 -3.83301 16.168 -7.5 26.501s-8.5 19.166 -14.5 26.499c-4 5.33301 -8.5 9.5 -13.5 12.5s-10.5 4.5 -16.5 4.5c-14 0 -24 -3.33301 -30 -10c-6.66699 -6.66699 -10 -15 -10 -25c0 -8 3 -14.5 9 -19.5
s13.667 -8.66699 23 -11s19.333 -3.83301 30 -4.5s20.667 -0.666992 30 0z" />
    <glyph glyph-name="H" unicode="H" horiz-adv-x="541" 
d="M147 181l-213.004 0.00195312l-1 75h168l-53 368l-22 11c0 9.33301 0.5 18.666 1.5 27.999s2.16699 18.666 3.5 27.999c2 8.66699 4.33301 17.167 7 25.5s5.66699 16.5 9 24.5l7 -5c0 -16.667 9.33301 -29 28 -37c7.33301 -3.33301 14.666 -6.33301 21.999 -9
s14.666 -5.66699 21.999 -9c0 -14 -1 -29 -3 -45c-1.33301 -8.66699 -2.66602 -16 -3.99902 -22s-3 -11 -5 -15l-21 7l40 -262l45 24.5c12 6.33301 20.667 11.166 26 14.499c42.667 20 79.334 30 110.001 30c16 0 29.833 -2.16699 41.5 -6.5s21.834 -10.166 30.501 -17.499
c13.333 -11.333 24 -29.333 32 -54s14.667 -51 20 -79h75v-75h-63c2 -12 3.5 -21.5 4.5 -28.5s2.5 -14.833 4.5 -23.5l-51 -20c-4 22 -8.16699 46.167 -12.5 72.5s-11.166 50.833 -20.499 73.5s-22.166 41.5 -38.499 56.5s-38.166 22.5 -65.499 22.5
c-20 0 -44 -4.66699 -72 -14c-17.333 -5.33301 -37 -13.333 -59 -24l5 -31z" />
    <glyph glyph-name="I" unicode="I" 
d="M236 181l-18.002 -0.00195312c-16 0 -30.667 2.33301 -44 7c-10.667 4 -23.334 10.667 -38.001 20c-11.333 -10.667 -23.333 -18 -36 -22c-6.66699 -2 -14.667 -3.33301 -24 -4s-20.666 -1 -33.999 -1h-111l-1 75h82c23.333 0 40 2 50 6c16.667 6.66699 25 20 25 40v12.5
c0 4.33301 -0.333008 8.5 -1 12.5c0 2 -0.5 5.66699 -1.5 11s-2.16699 11 -3.5 17s-2.5 11.667 -3.5 17s-1.83301 9.33301 -2.5 12l46 26c2.66699 -10 5.83398 -20.833 9.50098 -32.5s7.66699 -23.167 12 -34.5s8.83301 -21.666 13.5 -30.999
s9.33398 -16.666 14.001 -21.999c16.667 -20.667 36.667 -32 60 -34h107v-75h-101zM135.998 501.998l-33 -63l-70 37l32 63z" />
    <glyph glyph-name="J" unicode="J" horiz-adv-x="450" 
d="M342 181l-120.002 0.00390625h-288l-1 75h99c-4 12 -6 25 -6 39c0 24.667 7 53.667 21 87c2 4.66699 5 11 9 19l15 30l15 -8c-5.33301 -11.333 -9.66602 -21.333 -12.999 -30s-5.66602 -16 -6.99902 -22c-2.66699 -10.667 -4 -22.334 -4 -35.001
c0 -31.333 16.667 -53.333 50 -66c22 -8.66699 52.333 -13.334 91 -14.001h93l-55 368l-22 11c0 9.33301 0.5 18.666 1.5 27.999s2.16699 18.666 3.5 27.999c2 8.66699 4.33301 17.167 7 25.5s5.66699 16.5 9 24.5l7 -5c0 -8 2.5 -15.333 7.5 -22s12.833 -11.667 23.5 -15
l47 -18c0 -6.66699 -0.5 -13.667 -1.5 -21s-2.16699 -15 -3.5 -23l-5.5 -21.5c-1.66699 -6.33301 -3.5 -11.833 -5.5 -16.5l-21 7l52 -340v-10h86v-75h-84z" />
    <glyph glyph-name="K" unicode="K" horiz-adv-x="500" 
d="M147 181l-51 0.000976562h-162l-1 75h161h7l-53 368l-22 11c0 9.33301 0.5 18.666 1.5 27.999s2.16699 18.666 3.5 27.999c2 8.66699 4.33301 17.167 7 25.5s5.66699 16.5 9 24.5l7 -5c0 -16.667 9.33301 -29 28 -37c7.33301 -3.33301 14.666 -6.33301 21.999 -9
s14.666 -5.66699 21.999 -9c0 -14 -1 -29 -3 -45c-1.33301 -8.66699 -2.66602 -16 -3.99902 -22s-3 -11 -5 -15l-21 7l52 -341v-9h13c10 0 21 2.33301 33 7c12.667 4 21.667 9.66699 27 17c-10.667 8.66699 -19.5 16.334 -26.5 23.001s-12.5 12.667 -16.5 18
c-10.667 12.667 -16 25.334 -16 38.001c0 23.333 13.333 40.666 40 51.999c20 8.66699 46.667 13 80 13c38 0 64.333 -5.33301 79 -16c17.333 -12 26 -33.667 26 -65v-26h-9c-4.66699 6 -9.33398 10 -14.001 12c-4 2 -8.66699 3 -14 3c-12 0 -22.333 -5.33301 -31 -16
l-19 -23c11.333 -7.33301 23 -13.166 35 -17.499s23.667 -8.16602 35 -11.499c22.667 -5.33301 45.334 -8 68.001 -8h39v-75h-39c-40 0 -74.667 5.66699 -104 17c-12 5.33301 -23.667 11.166 -35 17.499s-21.666 14.166 -30.999 23.499c-10 -18.667 -26.667 -33.667 -50 -45
c-18 -8.66699 -37 -13 -57 -13h-11zM315 374.001c-15.333 3.33301 -30.167 5.00098 -44.5 5.00098s-24.833 -3 -31.5 -9c-5.33301 -4.66699 -7 -10.167 -5 -16.5s9.66699 -14.166 23 -23.499c6 9.33301 13.5 18.166 22.5 26.499s20.833 14.166 35.5 17.499z" />
    <glyph glyph-name="L" unicode="L" horiz-adv-x="278" 
d="M-66 181l-0.999023 75.002h168l-53 368l-22 11c0 9.33301 0.5 18.666 1.5 27.999s2.16699 18.666 3.5 27.999c2 8.66699 4.33301 17.167 7 25.5s5.66699 16.5 9 24.5l7 -5c0 -16.667 9.33301 -29 28 -37c7.33301 -3.33301 14.666 -6.33301 21.999 -9
s14.666 -5.66699 21.999 -9c0 -14 -1 -29 -3 -45c-1.33301 -8.66699 -2.66602 -16 -3.99902 -22s-3 -11 -5 -15l-21 7l52 -341v-9h117v-75h-328z" />
    <glyph glyph-name="M" unicode="M" horiz-adv-x="535" 
d="M110 383c17.333 0 33.002 -2.66602 47.002 -7.99902c12.667 -5.33301 24.667 -12.333 36 -21c14 10 26 17 36 21c14.667 5.33301 35 8 61 8h28c14.667 0 29.667 -3 45 -9c11.333 -4.66699 20.333 -11.334 27 -20.001s12 -18.667 16 -30
c3.33301 -10.667 5.83301 -21.834 7.5 -33.501s3.16699 -23.167 4.5 -34.5h108v-75h-119v1c-4 13.333 -7.66699 24.833 -11 34.5s-6.33301 17.5 -9 23.5c-8.66699 20 -19 36 -31 48c-12.667 12.667 -28.667 19 -48 19h-29c-22.667 0 -38.667 -3.33301 -48 -10
c-12 -7.33301 -18 -19.333 -18 -36c0 -4.66699 0.166992 -9 0.5 -13s0.833008 -8.33301 1.5 -13c0.666992 -4 1.16699 -8.16699 1.5 -12.5s1.16602 -9.16602 2.49902 -14.499l-17 -26l-9 41c-8 32 -17.333 54.333 -28 67c-10 10.667 -23.333 16 -40 16
c-17.333 0 -26 -8.33301 -26 -25s6 -34 18 -52c1.33301 -1.33301 3.66602 -4.33301 6.99902 -9l14 -19l-28 -47c-3.33301 4.66699 -6.33301 9.16699 -9 13.5s-5 8.83301 -7 13.5h-155l-1 75h137v23v27l-35 8l2 67c7.33301 0 13.5 0.166992 18.5 0.5s9.66699 0.5 14 0.5
s9 0.166992 14 0.5s11.167 0.5 18.5 0.5h3z" />
    <glyph glyph-name="N" unicode="N" horiz-adv-x="449" 
d="M37 382c12.667 -1.33301 23.002 -3.66602 31.002 -6.99902c12.667 -5.33301 24.667 -12.333 36 -21c14 10 26 17 36 21c14.667 5.33301 35 8 61 8h28c14.667 0 29.667 -3 45 -9c11.333 -4 20.333 -10.5 27 -19.5s12 -19 16 -30s6.66699 -22.5 8 -34.5
s2.66602 -23.333 3.99902 -34h98v-75h-109c-0.666992 2.66699 -1.83398 6.66699 -3.50098 12l-5.5 17.5c-2 6.33301 -4.16699 12.166 -6.5 17.499s-3.83301 9.33301 -4.5 12c-8.66699 20 -19 36 -31 48c-12.667 12.667 -28.667 19 -48 19h-29
c-22.667 0 -38.667 -3.33301 -48 -10c-12 -7.33301 -18 -19.333 -18 -36c0 -4.66699 0.166992 -9 0.5 -13s0.833008 -8.33301 1.5 -13c0.666992 -4 1.16699 -8.16699 1.5 -12.5s1.16602 -9.16602 2.49902 -14.499l-15 -27h-172l2 75h147
c-2.66699 7.33301 -5.5 13.833 -8.5 19.5s-6.16699 10.5 -9.5 14.5c-5.33301 5.33301 -12.166 9.66602 -20.499 12.999s-17.5 6 -27.5 8z" />
    <glyph glyph-name="O" unicode="O" horiz-adv-x="419" 
d="M282 287l0.00195312 -15.5c0 -5 -0.333008 -10.167 -1 -15.5h125v-75h-150v2c-22 -28 -59.333 -42 -112 -42c-22 0 -40.333 4.33301 -55 13c-12 7.33301 -19.333 16.333 -22 27h-116l-1 75h123c1.33301 2.66699 2.16602 5 2.49902 7s1.16602 4.33301 2.49902 7
c5.33301 11.333 10.333 23 15 35s9.66699 24 15 36l-7 2l27 77l66 -35.5c16 -9 26.667 -15.5 32 -19.5c36 -25.333 54 -51.333 54 -78h2zM222.002 537l-33 -62l-69 37l32 62zM124.002 499l-33 -63l-69 36l30 63l71 -36h1zM240.002 251c0 12 -16.6689 27.333 -50.002 46
c-14 8 -29 16 -45 24c-13.333 -14.667 -21.666 -24 -24.999 -28c-8 -11.333 -12 -22.333 -12 -33c0 -15.333 4 -27.333 12 -36c8.66699 -8.66699 20.334 -13 35.001 -13c16 0 34.333 4.66699 55 14c20 10 30 18.667 30 26z" />
    <glyph glyph-name="P" unicode="P" horiz-adv-x="489" 
d="M376 181h-28.998h-23c-46.667 0 -88.667 -4.66699 -126 -14c-13.333 -3.33301 -24 -7 -32 -11s-13.833 -9 -17.5 -15s-5.66699 -13.333 -6 -22s0.5 -19.334 2.5 -32.001l8 -28c2 -7.33301 3.33301 -11.666 4 -12.999l6 -24c3.33301 -12 7.33301 -24.667 12 -38l13 -38.5
l11 -33l7 -20.5c5.33301 -18.667 8.66602 -33.5 9.99902 -44.5s1.16602 -20.667 -0.500977 -29s-4.5 -17 -8.5 -26s-8.66699 -20.833 -14 -35.5l-10.5 34l-10.5 34l-15 49.5l-20.5 66.5l-19 62.5c-5.66699 19 -9.16699 31.5 -10.5 37.5c-3.33301 10 -6 18.833 -8 26.5
s-3.66699 14.5 -5 20.5c-6.66699 22.667 -12.667 40.334 -18 53.001s-11 22 -17 28s-13.167 9.5 -21.5 10.5s-18.833 1.5 -31.5 1.5h-67l-1 75h76c30 0 52.5 -6 67.5 -18s26.167 -31 33.5 -57c1.33301 2 2.5 4 3.5 6s2.16699 4 3.5 6c15.333 19.333 39.333 34 72 44
c12.667 3.33301 26.5 6.66602 41.5 9.99902s35.167 6.33301 60.5 9l-39.5 40.5c-14.333 15 -30.166 25.5 -47.499 31.5c-10 3.33301 -20.167 4.5 -30.5 3.5s-21.166 -5.16699 -32.499 -12.5c-2 -1.33301 -5.33301 -4.66602 -10 -9.99902l-15.5 -18.5l-16 -20l-11.5 -14.5
l-23 15c2.66699 6 6.5 13.667 11.5 23s10.5 18.666 16.5 27.999l17 26c5.33301 8 9.66602 14 12.999 18c21.333 25.333 47.666 38 78.999 38c17.333 0 35.333 -6.66699 54 -20c4 -2.66699 9.5 -7.5 16.5 -14.5l22 -22.5l22 -24l16.5 -19c4 -4.66699 8.83301 -11 14.5 -19
s12.167 -17.667 19.5 -29h106v-75h-102z" />
    <glyph glyph-name="Q" unicode="Q" horiz-adv-x="345" 
d="M159 191c-10.667 -4.66699 -19.498 -7.49805 -26.498 -8.49805s-16.5 -1.5 -28.5 -1.5h-163l-1 75h85c-0.666992 1.33301 -1.66699 2.66602 -3 3.99902c-0.666992 16.667 0.666016 32.667 3.99902 48s9.33301 30.666 18 45.999c19.333 33.333 41.666 50 66.999 50
c34 0 61 -23 81 -69c10 -24 17 -50.333 21 -79h110v-75h-100l35 -192c11.333 -62.667 25.333 -107 42 -133c17.333 -27.333 38.666 -39 63.999 -35v-21c-14.667 -6.66699 -29.667 -10 -45 -10s-29.666 4.66699 -42.999 14c-17.333 12 -31.333 32 -42 60
c-5.33301 11.333 -10 24.833 -14 40.5s-8 33.5 -12 53.5l-9 53l-10.5 59c-3.66699 20 -7.66699 39.5 -12 58.5s-8.5 36.167 -12.5 51.5zM148.002 258.002c-8.66699 19.333 -14 30.333 -16 33c-8 12 -18 18 -30 18c-14.667 0 -25 -3.33301 -31 -10
c-6.66699 -6.66699 -10 -15 -10 -25c0 -9.33301 4.33301 -16.333 13 -21c8.66699 -5.33301 18 -8 28 -8c8 0 15 1 21 3l11 4.5c4 1.66699 8.66699 3.5 14 5.5zM124.002 512.002l-33 -62l-69 36l31 63z" />
    <glyph glyph-name="R" unicode="R" horiz-adv-x="379" 
d="M-48 256l178.998 -0.000976562c-3.33301 8 -6.66602 15.5 -9.99902 22.5l-10 21.5c-17.333 32 -43.333 70.333 -78 115l25 81c9.33301 -13.333 17.833 -24.5 25.5 -33.5s14.834 -16.833 21.501 -23.5c24.667 -22 51.334 -33 80.001 -33c30 0 50.667 10 62 30
c3.33301 5.33301 6.16602 12.833 8.49902 22.5s4.5 21.834 6.5 36.501l14 1c0.666992 -5.33301 1.16699 -10.5 1.5 -15.5s0.5 -10.833 0.5 -17.5c0.666992 -6 1 -12.167 1 -18.5v-18.5c0 -28.667 -7 -52 -21 -70c-15.333 -19.333 -37 -29 -65 -29
c-4.66699 0 -13.667 1.33301 -27 4c10 -22 17 -39 21 -51c1.33301 -4 2.5 -8 3.5 -12s2.16699 -8 3.5 -12h166v-75h-410z" />
    <glyph glyph-name="S" unicode="S" horiz-adv-x="591" 
d="M522 405l-76 -0.000976562c-22 0 -41.333 -0.333008 -58 -1s-30.667 -1.66699 -42 -3c-22 -2 -33 -6.66699 -33 -14c0 -9.33301 13.333 -14 40 -14h16c4.66699 0 8.66699 -0.333008 12 -1s8.83301 -1.33398 16.5 -2.00098s17.5 -1.66699 29.5 -3
c7.33301 -0.666992 13.166 -1.5 17.499 -2.5s7.83301 -2.16699 10.5 -3.5c8.66699 -4 13 -11.667 13 -23c0 -7.33301 -0.5 -14.666 -1.5 -21.999s-1.16699 -14.333 -0.5 -21s2.66699 -12.834 6 -18.501s9.33301 -10.5 18 -14.5
c5.33301 -2.66699 12.166 -4.33398 20.499 -5.00098s18.5 -1 30.5 -1h40v-75h-40c-15.333 0 -28.166 0.333008 -38.499 1s-19.333 2.83398 -27 6.50098s-14.667 9.16699 -21 16.5s-13.166 18 -20.499 32c-6 -6 -12.333 -11.333 -19 -16
c-36.667 -25.333 -97.334 -38.666 -182.001 -39.999h-10h-292l-1 75h98c-8.66699 14.667 -13 32 -13 52c0 33.333 9 69 27 107c3.33301 6.66699 9.33301 17.167 18 31.5l34 54.5l17 -8l-16 -28l-16 -28c-8.66699 -15.333 -14.834 -29.5 -18.501 -42.5
s-5.5 -24.833 -5.5 -35.5c0 -35.333 18.333 -62 55 -80c34.667 -18 83 -27 145 -27c42.667 0 79.334 3.33301 110.001 10c38.667 8 58 18.667 58 32c0 4 -2.33301 7.66699 -7 11c-4 2 -11.333 3 -22 3c-8 1.33301 -20.333 2.33301 -37 3
c-8 0.666992 -14.667 1.16699 -20 1.5s-9.33301 0.5 -12 0.5c-19.333 0 -32.666 2.33301 -39.999 7c-7.33301 5.33301 -11 12.333 -11 21c0 36 10.333 65.333 31 88c18.667 18.667 42 32.334 70 41.001c20.667 6.66699 43.667 10 69 10h76zM341 126.999l-40 -37l-49 31
l39 41zM251 126.999l-39 -37l-50 31l40 41z" />
    <glyph glyph-name="T" unicode="T" horiz-adv-x="453" 
d="M369 181c-14.667 0 -29.999 2.66992 -45.999 8.00293c-4.66699 2 -10 4.5 -16 7.5s-12.667 6.83301 -20 11.5c-12.667 -10 -25.334 -17.333 -38.001 -22c-8 -2.66699 -17.167 -4.16699 -27.5 -4.5s-20.166 -0.5 -29.499 -0.5h-83h-177l-1 75h154l-53 368l-22 11
c0 9.33301 0.5 18.666 1.5 27.999s2.16699 18.666 3.5 27.999c2 8.66699 4.33301 17.167 7 25.5s5.66699 16.5 9 24.5l7 -5c0 -16.667 9.33301 -29 28 -37c7.33301 -3.33301 14.666 -6.33301 21.999 -9s14.666 -5.66699 21.999 -9c0 -14 -1 -29 -3 -45
c-1.33301 -8.66699 -2.66602 -16 -3.99902 -22s-3 -11 -5 -15l-21 7l27 -174c4 6 8 11.5 12 16.5s7.66699 9.83301 11 14.5c13.333 16 29 29.667 47 41c5.33301 3.33301 12.166 6.66602 20.499 9.99902l31.5 13l3 -7c-2.66699 -3.33301 -5.5 -6.5 -8.5 -9.5
s-6.16699 -6.5 -9.5 -10.5c-8 -8 -12.667 -13 -14 -15l-29.5 -40c-11 -15.333 -23.167 -33.333 -36.5 -54c-3.33301 -4.66699 -6.16602 -9 -8.49902 -13s-5.16602 -8.33301 -8.49902 -13l15 -100v-9h70c18.667 0 32.667 2 42 6c16.667 6.66699 25 20 25 40v12.5
c0 4.33301 -0.333008 8.5 -1 12.5s-1.33398 8.33301 -2.00098 13s-1.66699 9.66699 -3 15l18 26l10.5 -34.5c3 -9.66699 6.16699 -17.5 9.5 -23.5c8.66699 -21.333 18.667 -37.333 30 -48c12 -10.667 25 -17 39 -19h61v-75h-46h-13z" />
    <glyph glyph-name="U" unicode="U" horiz-adv-x="590" 
d="M454 181l-540 -0.00292969l-1 75h120c-10.667 18.667 -16 41 -16 67c0 27.333 6 55 18 83l11.5 22c5 9.33301 11.833 21 20.5 35l12 -8c-3.33301 -6.66699 -6.33301 -13.167 -9 -19.5l-9 -20.5c-8.66699 -19.333 -13 -37.666 -13 -54.999c0 -34 18 -60.333 54 -79
c18.667 -9.33301 41.167 -16 67.5 -20s54 -6.33301 83 -7s58 -0.5 87 0.5s55.167 1.5 78.5 1.5v12c0 32 -4 58 -12 78c-8 20.667 -21.333 38.334 -40 53.001l33 70c13.333 -15.333 21 -25 23 -29c20 -33.333 30 -80.666 30 -141.999v-42h103v-75h-101zM321 78.9971l-34 -63
l-69 37l32 63z" />
    <glyph glyph-name="V" unicode="V" horiz-adv-x="311" 
d="M95 256c12 0 23.5039 2.66797 34.5039 8.00098s20.667 12.5 29 21.5s15.166 19.333 20.499 31s8 23.5 8 35.5c0 6.66699 -0.333008 13.334 -1 20.001s-2 13.667 -4 21s-4.83301 16.166 -8.5 26.499s-8.5 22.166 -14.5 35.499l18 10l18 -36.5
c4.66699 -9.66699 8 -17.167 10 -22.5c6 -14 12.167 -30.5 18.5 -49.5s8.5 -37.167 6.5 -54.5c-1.33301 -9.33301 -4.33301 -18 -9 -26s-12.334 -14.667 -23.001 -20h98v-75h-362l-1 75h104c0 13.333 -0.833008 27.333 -2.5 42s-4.83398 28.667 -9.50098 42
c-8.66699 20 -22.334 38.333 -41.001 55l33 74c6.66699 -8 12 -14.667 16 -20s6.66699 -9 8 -11c20.667 -33.333 31 -83 31 -149v-33h23z" />
    <glyph glyph-name="W" unicode="W" horiz-adv-x="510" 
d="M277 651l-33 -63l-70 37l32 63zM399 256l85.998 0.000976562v-75h-86h-9h-24c-19.333 0 -35 2.33301 -47 7c-13.333 4.66699 -25.333 11.667 -36 21c-7.33301 -5.33301 -13.833 -9.66602 -19.5 -12.999s-11.167 -6 -16.5 -8c-13.333 -4.66699 -33.666 -7 -60.999 -7h-28
c-16.667 0 -31.667 2.66699 -45 8c-11.333 4.66699 -23.333 11 -36 19c-13.333 -10.667 -26.333 -18 -39 -22c-5.33301 -2 -12.666 -3.33301 -21.999 -4s-20.333 -1 -33 -1h-85l-1 75h83c21.333 0 37.666 2 48.999 6c16.667 7.33301 25 20.666 25 39.999
c0 4 -0.166992 8.16699 -0.5 12.5s-0.833008 8.5 -1.5 12.5c0 4 -0.333008 8.33301 -1 13s-1.66699 9.66699 -3 15l17 26c4 -13.333 7.66699 -24.833 11 -34.5s6.33301 -17.5 9 -23.5c10 -21.333 20.333 -37.333 31 -48c12.667 -12.667 28.667 -19 48 -19h29
c22.667 0 38.667 3.33301 48 10c12 6.66699 18 18.667 18 36c0 4.66699 -0.166992 9 -0.5 13s-0.833008 8.33301 -1.5 13c-0.666992 4 -1.16699 8.16699 -1.5 12.5s-1.16602 9.16602 -2.49902 14.499l17 26l9 -41c8 -32.667 17.667 -55 29 -67
c8.66699 -10.667 21.667 -16 39 -16c8 0 14.333 2.33301 19 7s7 10.667 7 18c0 16 -5.66699 33.333 -17 52c-2.66699 2.66699 -10 12 -22 28l28 47c12 -18 20 -33.333 24 -46c6 -20 9 -46 9 -78v-29h4zM356.998 574.001l-33 -63l-70 37l33 62zM258.998 535.001l-33 -63
l-70 36l32 63z" />
    <glyph glyph-name="X" unicode="X" horiz-adv-x="396" 
d="M249 402c0 -19.333 -2.83203 -38.1699 -8.49902 -56.5029s-14.167 -37.166 -25.5 -56.499c29.333 -22 62.666 -33 99.999 -33h62v-75h-62c-28.667 0 -53 5 -73 15s-39.333 26.333 -58 49c-18.667 -22.667 -38 -39 -58 -49s-44.667 -15 -74 -15h-118l-1 75h118
c19.333 0 37.666 3 54.999 9s33 14.667 47 26c-17.333 23.333 -39.166 45.333 -65.499 66s-51.833 38.667 -76.5 54c5.33301 9.33301 13.5 18.5 24.5 27.5s20.5 14.833 28.5 17.5c22.667 -20 44 -41.167 64 -63.5s38.667 -46.166 56 -71.499c11.333 15.333 20 32.333 26 51
s8 38.334 6 59.001l31 1z" />
    <glyph glyph-name="Y" unicode="Y" horiz-adv-x="507" 
d="M397 256l86.002 -0.00292969v-75h-86c-8.66699 0 -14 -3 -16 -9s-3 -13.667 -3 -23s0.333008 -23.666 1 -42.999s2 -37.666 4 -54.999c1.33301 -17.333 3 -34.166 5 -50.499s3.66699 -33.166 5 -50.499c2 -20.667 3.33301 -39.667 4 -57s0.666992 -33 0 -47
c-0.666992 -28.667 -5.33398 -51.334 -14.001 -68.001c-8.66699 -18.667 -23 -30 -43 -34l-60 -11l-12 74l60 8c9.33301 0.666992 17.333 7 24 19c7.33301 15.333 9.33301 48 6 98c-7.33301 54.667 -13 102.834 -17 144.501s-6.66699 70.167 -8 85.5v18h-67
c-24.667 0 -49 0.833008 -73 2.5s-46.5 4.5 -67.5 8.5s-37.833 9.66699 -50.5 17c-13.333 -10.667 -26.333 -18 -39 -22c-5.33301 -2 -12.666 -3.33301 -21.999 -4s-20.333 -1 -33 -1h-36l-1 75h34c21.333 0 37.666 2 48.999 6c16.667 7.33301 25 20.666 25 39.999
c0 4 -0.166992 8.16699 -0.5 12.5s-0.833008 8.5 -1.5 12.5c0 4 -0.333008 8.33301 -1 13s-1.66699 9.66699 -3 15l17 26c4 -13.333 7.66699 -24.833 11 -34.5s6.33301 -17.5 9 -23.5c10 -22 24.833 -37.667 44.5 -47s41.834 -15.5 66.501 -18.5s50.167 -3.83301 76.5 -2.5
s51.166 2 74.499 2c8 0 14.333 2.33301 19 7s7 10.667 7 18c0 16 -5.66699 33.333 -17 52c-2.66699 2.66699 -10 12 -22 28l28 47c12 -18 20 -33.333 24 -46c3.33301 -10 5.66602 -24.833 6.99902 -44.5s2 -37.5 2 -53.5zM355.002 553.997l-33 -63l-70 37l33 62z
M257.002 514.997l-33 -63l-70 36l32 63z" />
    <glyph glyph-name="Z" unicode="Z" horiz-adv-x="526" 
d="M-66 181l-0.996094 75h176c3.33301 0 10.166 4 20.499 12s23.166 19 38.499 33l51.5 45.5c14.333 12.333 26.166 21.5 35.499 27.5c5.33301 4 10.333 7.5 15 10.5s9.33398 5.83301 14.001 8.5c-13.333 6 -28.5 12 -45.5 18s-33.333 11.5 -49 16.5l-42 13
c-12.333 3.66699 -20.5 6.16699 -24.5 7.5l-81 27v67l261 -110c13.333 -5.33301 25.666 -10.5 36.999 -15.5s21.5 -10.667 30.5 -17s17.167 -14 24.5 -23s14 -20.5 20 -34.5c-14 2 -27.333 3 -40 3c-10.667 0 -21.334 -0.833008 -32.001 -2.5s-21 -4.5 -31 -8.5
c-18.667 -6 -39.334 -16.333 -62.001 -31c-9.33301 -5.33301 -18.666 -12 -27.999 -20s-16.333 -17 -21 -27h297v-75h-564z" />
    <glyph glyph-name="a" unicode="a" horiz-adv-x="439" 
d="M39 181l-104.999 0.000976562l-1 75h104c0 19.333 7.66699 46 23 80c11.333 24 27.333 51.333 48 82c18 -4 39.333 -14.667 64 -32c26 -19.333 47.667 -41.333 65 -66c13.333 -20 27.666 -34.667 42.999 -44c20.667 -13.333 44 -20 70 -20h66v-75h-67
c-33.333 0 -59 3.66699 -77 11c-18 8.66699 -35 23 -51 43c-11.333 -8.66699 -23 -16.334 -35 -23.001s-25 -12.667 -39 -18c-23.333 -8.66699 -45 -13 -65 -13h-26h-17zM86.001 266.001l3.99902 -6c16.667 2 34.334 7.66699 53.001 17c19.333 9.33301 34 19.333 44 30
c-4 7.33301 -7.83301 13.5 -11.5 18.5s-7.16699 9.16699 -10.5 12.5c-9.33301 9.33301 -21 16 -35 20c-12 -16 -20.667 -30 -26 -42c-8 -18 -14 -34.667 -18 -50z" />
    <glyph glyph-name="b" unicode="b" horiz-adv-x="568" 
d="M477 256h86v-75h-629l-1 75h64c19.333 0 38 2.66699 56 8c19.333 6 41.666 16.667 66.999 32c5.33301 14 9.33301 27.667 12 41c3.33301 15.333 5 29.333 5 42c0 30.667 -3 64.667 -9 102c-2 13.333 -4.66699 28 -8 44l-11 52c-2.66699 9.33301 -5.5 19.833 -8.5 31.5
l-9.5 38.5l-27 13c2 17.333 5 34 9 50c2 8 4.33301 16 7 24s5.66699 15.667 9 23c4.66699 -13.333 15.334 -24 32.001 -32c12.667 -6 29.667 -10 51 -12c-1.33301 -14.667 -2.5 -26.667 -3.5 -36s-1.83301 -16 -2.5 -20c-1.33301 -4.66699 -2.5 -9.5 -3.5 -14.5
s-2.5 -10.167 -4.5 -15.5c-3.33301 0 -8.66602 1.33301 -15.999 4l-6 2c5.33301 -17.333 10.166 -34.666 14.499 -51.999s8.16602 -35 11.499 -53c6 -35.333 9 -65 9 -89c0 -21.333 -2 -44.333 -6 -69c-0.666992 -4.66699 -1.66699 -10.334 -3 -17.001l-5 -24l62 35.5
c16 9 27.667 15.167 35 18.5c42.667 20 79.334 30 110.001 30c38.667 0 67.667 -11.333 87 -34c17.333 -20 26 -49.667 26 -89v-34zM409 289c0 14.667 -7.66699 25.999 -23 33.999c-16 7.33301 -37.667 11 -65 11c-19.333 0 -43.666 -4.66699 -72.999 -14
c-11.333 -3.33301 -22.833 -7.66602 -34.5 -12.999s-23.834 -11.333 -36.501 -18l-29 -16c-10 -5.33301 -19.667 -11 -29 -17h188c68 0 102 11 102 33z" />
    <glyph glyph-name="c" unicode="c" horiz-adv-x="521" 
d="M-65 181l-1 75.002h111c6 0 14.5 4.66699 25.5 14l41.5 37c46 41.333 78.333 68.666 97 81.999c40.667 28.667 75.667 43 105 43c30.667 0 55.334 -9.33301 74.001 -28c14 -13.333 25 -30.333 33 -51c-15.333 2 -30 3 -44 3c-24.667 0 -48.334 -4 -71.001 -12
c-20 -6.66699 -43 -18.334 -69 -35.001l-33.5 -23l-41.5 -30h353v-75h-580zM236 87.002l69 37l34 -63l-71 -37z" />
    <glyph glyph-name="d" unicode="d" horiz-adv-x="584" 
d="M96 289c0 -22 34 -32.999 102 -32.999h188l-29.5 17l-28.5 16c-12.667 6.66699 -25 12.667 -37 18s-23.667 9.66602 -35 12.999c-28 9.33301 -52 14 -72 14c-28 0 -50 -3.66699 -66 -11c-14.667 -8 -22 -19.333 -22 -34zM-66 256.001l91.9961 -0.00195312v34
c0 38 9 67.667 27 89c19.333 22.667 48.333 34 87 34c30 0 66.667 -10 110 -30c14 -7.33301 46 -25.333 96 -54c-1.33301 9.33301 -2.66602 17.333 -3.99902 24s-2.66602 12.334 -3.99902 17.001c-5.33301 32 -8.16602 66.333 -8.49902 103s-2.16602 71 -5.49902 103
l-4.5 33l-5.5 39l-25 16c2.66699 8.66699 5.16699 17.167 7.5 25.5s4.83301 16.166 7.5 23.499c3.33301 8 6.83301 15.667 10.5 23l11.5 22c3.33301 -14 12.666 -26 27.999 -36c11.333 -6.66699 27.666 -12.667 48.999 -18l-8 -36c-2 -9.33301 -3.66699 -15.666 -5 -18.999
c-2 -8.66699 -6 -18.334 -12 -29.001c-1.33301 0 -3.16602 0.666992 -5.49902 2s-5.5 2.66602 -9.5 3.99902l-6 3c4.66699 -24 7.83398 -46.167 9.50098 -66.5s2.5 -40.166 2.5 -59.499s-0.333008 -39 -1 -59s-1 -41.667 -1 -65c0 -6.66699 0.333008 -13.5 1 -20.5
s2 -14.167 4 -21.5c2.66699 -13.333 6.66699 -27 12 -41c12.667 -7.33301 24.5 -13.666 35.5 -18.999s21.5 -9.66602 31.5 -12.999c18 -5.33301 36.333 -8 55 -8h66v-75h-639l-1 75h2z" />
    <glyph glyph-name="e" unicode="e" horiz-adv-x="342" 
d="M326 181h-368.001l-1 76l100 -1v37c0 60.667 7.66699 114 23 160c19.333 55.333 46.666 83 81.999 83c26 0 47 -16.667 63 -50c14 -30 21 -65 21 -105c0 -23.333 -7.66699 -40.666 -23 -51.999c-12.667 -10.667 -29.667 -16 -51 -16
c-5.33301 0 -10.666 0.333008 -15.999 1s-11.666 2 -18.999 4c-4 1.33301 -8.83301 2.66602 -14.5 3.99902s-12.167 3.33301 -19.5 6c-6 -22 -9 -46 -9 -72h230zM241.999 673l-34 -63l-69 38l32 62zM142.999 634l-33 -63l-70 37l32 63zM126.999 406
c3.33301 -2.66699 6.83398 -4.83301 10.501 -6.5s7.5 -3.16699 11.5 -4.5c6.66699 -2 13.667 -3 21 -3c25.333 0 38 11.333 38 34c0 10 -2.33301 17.667 -7 23c-4.66699 6.66699 -11.334 10 -20.001 10c-10.667 0 -22 -7.33301 -34 -22c-9.33301 -10 -16 -20.333 -20 -31z
" />
    <glyph glyph-name="f" unicode="f" horiz-adv-x="406" 
d="M384 181l-193.003 -0.000976562c18.667 -8.66699 34.334 -21 47.001 -37c16.667 -19.333 25 -41 25 -65c0 -22 -3.66699 -40.333 -11 -55c-7.33301 -16 -20.666 -24 -39.999 -24c-35.333 0 -67 11.667 -95 35c-35.333 29.333 -52.666 67.333 -51.999 114l1 32h-134l-1 75
h147c10 26.667 21 51.667 33 75c16.667 30 32.667 53.667 48 71c20 21.333 38.333 32 55 32c8 0 15.667 -7.66699 23 -23c6.66699 -15.333 10 -32 10 -50c0 -26 -6.33301 -46.667 -19 -62c-8.66699 -9.33301 -32 -23.666 -70 -42.999h224zM204.997 328.999
c0 27.333 -5.66699 40.999 -17 40.999c-13.333 0 -28.333 -13.667 -45 -41l-15 -25.5c-6 -10.333 -13 -23.166 -21 -38.499c26.667 6.66699 49 15.667 67 27c20.667 12.667 31 25 31 37zM221.997 85.998c0 22 -17.001 44.001 -51.001 66.001c-27.333 17.333 -54 28 -80 32
c0 -31.333 7.33301 -57.333 22 -78c18.667 -24.667 46.334 -37 83.001 -37c7.33301 0 13.333 1.33301 18 4c5.33301 3.33301 8 7.66602 8 12.999z" />
    <glyph glyph-name="g" unicode="g" horiz-adv-x="519" 
d="M357 578l-34 -62l-69 37l32 62zM405 256l89.0039 -0.00683594v-75h-85v-67c0 -26 -6 -49.333 -18 -70s-28 -38.167 -48 -52.5s-42.5 -25.666 -67.5 -33.999s-50.5 -12.833 -76.5 -13.5c-21.333 -1.33301 -42.333 0.333984 -63 5.00098s-39.667 12.334 -57 23.001
c-38 22.667 -57 59.334 -57 110.001c0 14.667 1 31 3 49s5 34.667 9 50h-100l-1 76h125c4 10.667 7.16699 18.334 9.5 23.001l12.5 24l18 -10l-11.5 -28.5c-3.66699 -9 -6.83398 -17.5 -9.50098 -25.5c-8.66699 -22 -14.334 -40.333 -17.001 -55c-4 -19.333 -6 -38 -6 -56
c0 -19.333 3.83301 -37.166 11.5 -53.499s19.5 -29.166 35.5 -38.499c13.333 -7.33301 28.666 -12.666 45.999 -15.999s35 -4.33301 53 -3c20.667 1.33301 41.5 5.16602 62.5 11.499s39.667 14.833 56 25.5s29.666 23.334 39.999 38.001s15.5 30.667 15.5 48v19
c0 5.33301 -0.333008 9.66602 -1 12.999c-0.666992 0.666992 -1 1.66699 -1 3h-39h-33c-26 0 -46.667 5.66699 -62 17c-20 14 -30 34.667 -30 62c0 32 8.66699 63.333 26 94c18 33.333 40.333 50 67 50c34 0 61 -23 81 -69c10 -24 17 -50.333 21 -79zM256.004 534.993
l-33 -63l-70 36l32 63zM343.004 250.993c-1.33301 7.33301 -3.83301 16.168 -7.5 26.501s-8.5 19.166 -14.5 26.499c-4 5.33301 -8.5 9.5 -13.5 12.5s-10.5 4.5 -16.5 4.5c-14 0 -24 -3.33301 -30 -10c-6.66699 -6.66699 -10 -15 -10 -25c0 -8 3 -14.5 9 -19.5
s13.667 -8.66699 23 -11s19.333 -3.83301 30 -4.5s20.667 -0.666992 30 0z" />
    <glyph glyph-name="h" unicode="h" horiz-adv-x="541" 
d="M147 181l-213.004 0.00195312l-1 75h168l-53 368l-22 11c0 9.33301 0.5 18.666 1.5 27.999s2.16699 18.666 3.5 27.999c2 8.66699 4.33301 17.167 7 25.5s5.66699 16.5 9 24.5l7 -5c0 -16.667 9.33301 -29 28 -37c7.33301 -3.33301 14.666 -6.33301 21.999 -9
s14.666 -5.66699 21.999 -9c0 -14 -1 -29 -3 -45c-1.33301 -8.66699 -2.66602 -16 -3.99902 -22s-3 -11 -5 -15l-21 7l40 -262l45 24.5c12 6.33301 20.667 11.166 26 14.499c42.667 20 79.334 30 110.001 30c16 0 29.833 -2.16699 41.5 -6.5s21.834 -10.166 30.501 -17.499
c13.333 -11.333 24 -29.333 32 -54s14.667 -51 20 -79h75v-75h-63c2 -12 3.5 -21.5 4.5 -28.5s2.5 -14.833 4.5 -23.5l-51 -20c-4 22 -8.16699 46.167 -12.5 72.5s-11.166 50.833 -20.499 73.5s-22.166 41.5 -38.499 56.5s-38.166 22.5 -65.499 22.5
c-20 0 -44 -4.66699 -72 -14c-17.333 -5.33301 -37 -13.333 -59 -24l5 -31z" />
    <glyph glyph-name="i" unicode="i" 
d="M236 181l-18.002 -0.00195312c-16 0 -30.667 2.33301 -44 7c-10.667 4 -23.334 10.667 -38.001 20c-11.333 -10.667 -23.333 -18 -36 -22c-6.66699 -2 -14.667 -3.33301 -24 -4s-20.666 -1 -33.999 -1h-111l-1 75h82c23.333 0 40 2 50 6c16.667 6.66699 25 20 25 40v12.5
c0 4.33301 -0.333008 8.5 -1 12.5c0 2 -0.5 5.66699 -1.5 11s-2.16699 11 -3.5 17s-2.5 11.667 -3.5 17s-1.83301 9.33301 -2.5 12l46 26c2.66699 -10 5.83398 -20.833 9.50098 -32.5s7.66699 -23.167 12 -34.5s8.83301 -21.666 13.5 -30.999
s9.33398 -16.666 14.001 -21.999c16.667 -20.667 36.667 -32 60 -34h107v-75h-101zM135.998 501.998l-33 -63l-70 37l32 63z" />
    <glyph glyph-name="j" unicode="j" horiz-adv-x="450" 
d="M342 181l-120.002 0.00390625h-288l-1 75h99c-4 12 -6 25 -6 39c0 24.667 7 53.667 21 87c2 4.66699 5 11 9 19l15 30l15 -8c-5.33301 -11.333 -9.66602 -21.333 -12.999 -30s-5.66602 -16 -6.99902 -22c-2.66699 -10.667 -4 -22.334 -4 -35.001
c0 -31.333 16.667 -53.333 50 -66c22 -8.66699 52.333 -13.334 91 -14.001h93l-55 368l-22 11c0 9.33301 0.5 18.666 1.5 27.999s2.16699 18.666 3.5 27.999c2 8.66699 4.33301 17.167 7 25.5s5.66699 16.5 9 24.5l7 -5c0 -8 2.5 -15.333 7.5 -22s12.833 -11.667 23.5 -15
l47 -18c0 -6.66699 -0.5 -13.667 -1.5 -21s-2.16699 -15 -3.5 -23l-5.5 -21.5c-1.66699 -6.33301 -3.5 -11.833 -5.5 -16.5l-21 7l52 -340v-10h86v-75h-84z" />
    <glyph glyph-name="k" unicode="k" horiz-adv-x="500" 
d="M147 181l-51 0.000976562h-162l-1 75h161h7l-53 368l-22 11c0 9.33301 0.5 18.666 1.5 27.999s2.16699 18.666 3.5 27.999c2 8.66699 4.33301 17.167 7 25.5s5.66699 16.5 9 24.5l7 -5c0 -16.667 9.33301 -29 28 -37c7.33301 -3.33301 14.666 -6.33301 21.999 -9
s14.666 -5.66699 21.999 -9c0 -14 -1 -29 -3 -45c-1.33301 -8.66699 -2.66602 -16 -3.99902 -22s-3 -11 -5 -15l-21 7l52 -341v-9h13c10 0 21 2.33301 33 7c12.667 4 21.667 9.66699 27 17c-10.667 8.66699 -19.5 16.334 -26.5 23.001s-12.5 12.667 -16.5 18
c-10.667 12.667 -16 25.334 -16 38.001c0 23.333 13.333 40.666 40 51.999c20 8.66699 46.667 13 80 13c38 0 64.333 -5.33301 79 -16c17.333 -12 26 -33.667 26 -65v-26h-9c-4.66699 6 -9.33398 10 -14.001 12c-4 2 -8.66699 3 -14 3c-12 0 -22.333 -5.33301 -31 -16
l-19 -23c11.333 -7.33301 23 -13.166 35 -17.499s23.667 -8.16602 35 -11.499c22.667 -5.33301 45.334 -8 68.001 -8h39v-75h-39c-40 0 -74.667 5.66699 -104 17c-12 5.33301 -23.667 11.166 -35 17.499s-21.666 14.166 -30.999 23.499c-10 -18.667 -26.667 -33.667 -50 -45
c-18 -8.66699 -37 -13 -57 -13h-11zM315 374.001c-15.333 3.33301 -30.167 5.00098 -44.5 5.00098s-24.833 -3 -31.5 -9c-5.33301 -4.66699 -7 -10.167 -5 -16.5s9.66699 -14.166 23 -23.499c6 9.33301 13.5 18.166 22.5 26.499s20.833 14.166 35.5 17.499z" />
    <glyph glyph-name="l" unicode="l" horiz-adv-x="278" 
d="M-66 181l-0.999023 75.002h168l-53 368l-22 11c0 9.33301 0.5 18.666 1.5 27.999s2.16699 18.666 3.5 27.999c2 8.66699 4.33301 17.167 7 25.5s5.66699 16.5 9 24.5l7 -5c0 -16.667 9.33301 -29 28 -37c7.33301 -3.33301 14.666 -6.33301 21.999 -9
s14.666 -5.66699 21.999 -9c0 -14 -1 -29 -3 -45c-1.33301 -8.66699 -2.66602 -16 -3.99902 -22s-3 -11 -5 -15l-21 7l52 -341v-9h117v-75h-328z" />
    <glyph glyph-name="m" unicode="m" horiz-adv-x="535" 
d="M110 383c17.333 0 33.002 -2.66602 47.002 -7.99902c12.667 -5.33301 24.667 -12.333 36 -21c14 10 26 17 36 21c14.667 5.33301 35 8 61 8h28c14.667 0 29.667 -3 45 -9c11.333 -4.66699 20.333 -11.334 27 -20.001s12 -18.667 16 -30
c3.33301 -10.667 5.83301 -21.834 7.5 -33.501s3.16699 -23.167 4.5 -34.5h108v-75h-119v1c-4 13.333 -7.66699 24.833 -11 34.5s-6.33301 17.5 -9 23.5c-8.66699 20 -19 36 -31 48c-12.667 12.667 -28.667 19 -48 19h-29c-22.667 0 -38.667 -3.33301 -48 -10
c-12 -7.33301 -18 -19.333 -18 -36c0 -4.66699 0.166992 -9 0.5 -13s0.833008 -8.33301 1.5 -13c0.666992 -4 1.16699 -8.16699 1.5 -12.5s1.16602 -9.16602 2.49902 -14.499l-17 -26l-9 41c-8 32 -17.333 54.333 -28 67c-10 10.667 -23.333 16 -40 16
c-17.333 0 -26 -8.33301 -26 -25s6 -34 18 -52c1.33301 -1.33301 3.66602 -4.33301 6.99902 -9l14 -19l-28 -47c-3.33301 4.66699 -6.33301 9.16699 -9 13.5s-5 8.83301 -7 13.5h-155l-1 75h137v23v27l-35 8l2 67c7.33301 0 13.5 0.166992 18.5 0.5s9.66699 0.5 14 0.5
s9 0.166992 14 0.5s11.167 0.5 18.5 0.5h3z" />
    <glyph glyph-name="n" unicode="n" horiz-adv-x="449" 
d="M37 382c12.667 -1.33301 23.002 -3.66602 31.002 -6.99902c12.667 -5.33301 24.667 -12.333 36 -21c14 10 26 17 36 21c14.667 5.33301 35 8 61 8h28c14.667 0 29.667 -3 45 -9c11.333 -4 20.333 -10.5 27 -19.5s12 -19 16 -30s6.66699 -22.5 8 -34.5
s2.66602 -23.333 3.99902 -34h98v-75h-109c-0.666992 2.66699 -1.83398 6.66699 -3.50098 12l-5.5 17.5c-2 6.33301 -4.16699 12.166 -6.5 17.499s-3.83301 9.33301 -4.5 12c-8.66699 20 -19 36 -31 48c-12.667 12.667 -28.667 19 -48 19h-29
c-22.667 0 -38.667 -3.33301 -48 -10c-12 -7.33301 -18 -19.333 -18 -36c0 -4.66699 0.166992 -9 0.5 -13s0.833008 -8.33301 1.5 -13c0.666992 -4 1.16699 -8.16699 1.5 -12.5s1.16602 -9.16602 2.49902 -14.499l-15 -27h-172l2 75h147
c-2.66699 7.33301 -5.5 13.833 -8.5 19.5s-6.16699 10.5 -9.5 14.5c-5.33301 5.33301 -12.166 9.66602 -20.499 12.999s-17.5 6 -27.5 8z" />
    <glyph glyph-name="o" unicode="o" horiz-adv-x="419" 
d="M282 287l0.00195312 -15.5c0 -5 -0.333008 -10.167 -1 -15.5h125v-75h-150v2c-22 -28 -59.333 -42 -112 -42c-22 0 -40.333 4.33301 -55 13c-12 7.33301 -19.333 16.333 -22 27h-116l-1 75h123c1.33301 2.66699 2.16602 5 2.49902 7s1.16602 4.33301 2.49902 7
c5.33301 11.333 10.333 23 15 35s9.66699 24 15 36l-7 2l27 77l66 -35.5c16 -9 26.667 -15.5 32 -19.5c36 -25.333 54 -51.333 54 -78h2zM222.002 537l-33 -62l-69 37l32 62zM124.002 499l-33 -63l-69 36l30 63l71 -36h1zM240.002 251c0 12 -16.6689 27.333 -50.002 46
c-14 8 -29 16 -45 24c-13.333 -14.667 -21.666 -24 -24.999 -28c-8 -11.333 -12 -22.333 -12 -33c0 -15.333 4 -27.333 12 -36c8.66699 -8.66699 20.334 -13 35.001 -13c16 0 34.333 4.66699 55 14c20 10 30 18.667 30 26z" />
    <glyph glyph-name="p" unicode="p" horiz-adv-x="489" 
d="M376 181h-28.998h-23c-46.667 0 -88.667 -4.66699 -126 -14c-13.333 -3.33301 -24 -7 -32 -11s-13.833 -9 -17.5 -15s-5.66699 -13.333 -6 -22s0.5 -19.334 2.5 -32.001l8 -28c2 -7.33301 3.33301 -11.666 4 -12.999l6 -24c3.33301 -12 7.33301 -24.667 12 -38l13 -38.5
l11 -33l7 -20.5c5.33301 -18.667 8.66602 -33.5 9.99902 -44.5s1.16602 -20.667 -0.500977 -29s-4.5 -17 -8.5 -26s-8.66699 -20.833 -14 -35.5l-10.5 34l-10.5 34l-15 49.5l-20.5 66.5l-19 62.5c-5.66699 19 -9.16699 31.5 -10.5 37.5c-3.33301 10 -6 18.833 -8 26.5
s-3.66699 14.5 -5 20.5c-6.66699 22.667 -12.667 40.334 -18 53.001s-11 22 -17 28s-13.167 9.5 -21.5 10.5s-18.833 1.5 -31.5 1.5h-67l-1 75h76c30 0 52.5 -6 67.5 -18s26.167 -31 33.5 -57c1.33301 2 2.5 4 3.5 6s2.16699 4 3.5 6c15.333 19.333 39.333 34 72 44
c12.667 3.33301 26.5 6.66602 41.5 9.99902s35.167 6.33301 60.5 9l-39.5 40.5c-14.333 15 -30.166 25.5 -47.499 31.5c-10 3.33301 -20.167 4.5 -30.5 3.5s-21.166 -5.16699 -32.499 -12.5c-2 -1.33301 -5.33301 -4.66602 -10 -9.99902l-15.5 -18.5l-16 -20l-11.5 -14.5
l-23 15c2.66699 6 6.5 13.667 11.5 23s10.5 18.666 16.5 27.999l17 26c5.33301 8 9.66602 14 12.999 18c21.333 25.333 47.666 38 78.999 38c17.333 0 35.333 -6.66699 54 -20c4 -2.66699 9.5 -7.5 16.5 -14.5l22 -22.5l22 -24l16.5 -19c4 -4.66699 8.83301 -11 14.5 -19
s12.167 -17.667 19.5 -29h106v-75h-102z" />
    <glyph glyph-name="q" unicode="q" horiz-adv-x="345" 
d="M159 191c-10.667 -4.66699 -19.498 -7.49805 -26.498 -8.49805s-16.5 -1.5 -28.5 -1.5h-163l-1 75h85c-0.666992 1.33301 -1.66699 2.66602 -3 3.99902c-0.666992 16.667 0.666016 32.667 3.99902 48s9.33301 30.666 18 45.999c19.333 33.333 41.666 50 66.999 50
c34 0 61 -23 81 -69c10 -24 17 -50.333 21 -79h110v-75h-100l35 -192c11.333 -62.667 25.333 -107 42 -133c17.333 -27.333 38.666 -39 63.999 -35v-21c-14.667 -6.66699 -29.667 -10 -45 -10s-29.666 4.66699 -42.999 14c-17.333 12 -31.333 32 -42 60
c-5.33301 11.333 -10 24.833 -14 40.5s-8 33.5 -12 53.5l-9 53l-10.5 59c-3.66699 20 -7.66699 39.5 -12 58.5s-8.5 36.167 -12.5 51.5zM148.002 258.002c-8.66699 19.333 -14 30.333 -16 33c-8 12 -18 18 -30 18c-14.667 0 -25 -3.33301 -31 -10
c-6.66699 -6.66699 -10 -15 -10 -25c0 -9.33301 4.33301 -16.333 13 -21c8.66699 -5.33301 18 -8 28 -8c8 0 15 1 21 3l11 4.5c4 1.66699 8.66699 3.5 14 5.5zM124.002 512.002l-33 -62l-69 36l31 63z" />
    <glyph glyph-name="r" unicode="r" horiz-adv-x="379" 
d="M-48 256l178.998 -0.000976562c-3.33301 8 -6.66602 15.5 -9.99902 22.5l-10 21.5c-17.333 32 -43.333 70.333 -78 115l25 81c9.33301 -13.333 17.833 -24.5 25.5 -33.5s14.834 -16.833 21.501 -23.5c24.667 -22 51.334 -33 80.001 -33c30 0 50.667 10 62 30
c3.33301 5.33301 6.16602 12.833 8.49902 22.5s4.5 21.834 6.5 36.501l14 1c0.666992 -5.33301 1.16699 -10.5 1.5 -15.5s0.5 -10.833 0.5 -17.5c0.666992 -6 1 -12.167 1 -18.5v-18.5c0 -28.667 -7 -52 -21 -70c-15.333 -19.333 -37 -29 -65 -29
c-4.66699 0 -13.667 1.33301 -27 4c10 -22 17 -39 21 -51c1.33301 -4 2.5 -8 3.5 -12s2.16699 -8 3.5 -12h166v-75h-410z" />
    <glyph glyph-name="s" unicode="s" horiz-adv-x="591" 
d="M522 405l-76 -0.000976562c-22 0 -41.333 -0.333008 -58 -1s-30.667 -1.66699 -42 -3c-22 -2 -33 -6.66699 -33 -14c0 -9.33301 13.333 -14 40 -14h16c4.66699 0 8.66699 -0.333008 12 -1s8.83301 -1.33398 16.5 -2.00098s17.5 -1.66699 29.5 -3
c7.33301 -0.666992 13.166 -1.5 17.499 -2.5s7.83301 -2.16699 10.5 -3.5c8.66699 -4 13 -11.667 13 -23c0 -7.33301 -0.5 -14.666 -1.5 -21.999s-1.16699 -14.333 -0.5 -21s2.66699 -12.834 6 -18.501s9.33301 -10.5 18 -14.5
c5.33301 -2.66699 12.166 -4.33398 20.499 -5.00098s18.5 -1 30.5 -1h40v-75h-40c-15.333 0 -28.166 0.333008 -38.499 1s-19.333 2.83398 -27 6.50098s-14.667 9.16699 -21 16.5s-13.166 18 -20.499 32c-6 -6 -12.333 -11.333 -19 -16
c-36.667 -25.333 -97.334 -38.666 -182.001 -39.999h-10h-292l-1 75h98c-8.66699 14.667 -13 32 -13 52c0 33.333 9 69 27 107c3.33301 6.66699 9.33301 17.167 18 31.5l34 54.5l17 -8l-16 -28l-16 -28c-8.66699 -15.333 -14.834 -29.5 -18.501 -42.5
s-5.5 -24.833 -5.5 -35.5c0 -35.333 18.333 -62 55 -80c34.667 -18 83 -27 145 -27c42.667 0 79.334 3.33301 110.001 10c38.667 8 58 18.667 58 32c0 4 -2.33301 7.66699 -7 11c-4 2 -11.333 3 -22 3c-8 1.33301 -20.333 2.33301 -37 3
c-8 0.666992 -14.667 1.16699 -20 1.5s-9.33301 0.5 -12 0.5c-19.333 0 -32.666 2.33301 -39.999 7c-7.33301 5.33301 -11 12.333 -11 21c0 36 10.333 65.333 31 88c18.667 18.667 42 32.334 70 41.001c20.667 6.66699 43.667 10 69 10h76zM341 126.999l-40 -37l-49 31
l39 41zM251 126.999l-39 -37l-50 31l40 41z" />
    <glyph glyph-name="t" unicode="t" horiz-adv-x="453" 
d="M369 181c-14.667 0 -29.999 2.66992 -45.999 8.00293c-4.66699 2 -10 4.5 -16 7.5s-12.667 6.83301 -20 11.5c-12.667 -10 -25.334 -17.333 -38.001 -22c-8 -2.66699 -17.167 -4.16699 -27.5 -4.5s-20.166 -0.5 -29.499 -0.5h-83h-177l-1 75h154l-53 368l-22 11
c0 9.33301 0.5 18.666 1.5 27.999s2.16699 18.666 3.5 27.999c2 8.66699 4.33301 17.167 7 25.5s5.66699 16.5 9 24.5l7 -5c0 -16.667 9.33301 -29 28 -37c7.33301 -3.33301 14.666 -6.33301 21.999 -9s14.666 -5.66699 21.999 -9c0 -14 -1 -29 -3 -45
c-1.33301 -8.66699 -2.66602 -16 -3.99902 -22s-3 -11 -5 -15l-21 7l27 -174c4 6 8 11.5 12 16.5s7.66699 9.83301 11 14.5c13.333 16 29 29.667 47 41c5.33301 3.33301 12.166 6.66602 20.499 9.99902l31.5 13l3 -7c-2.66699 -3.33301 -5.5 -6.5 -8.5 -9.5
s-6.16699 -6.5 -9.5 -10.5c-8 -8 -12.667 -13 -14 -15l-29.5 -40c-11 -15.333 -23.167 -33.333 -36.5 -54c-3.33301 -4.66699 -6.16602 -9 -8.49902 -13s-5.16602 -8.33301 -8.49902 -13l15 -100v-9h70c18.667 0 32.667 2 42 6c16.667 6.66699 25 20 25 40v12.5
c0 4.33301 -0.333008 8.5 -1 12.5s-1.33398 8.33301 -2.00098 13s-1.66699 9.66699 -3 15l18 26l10.5 -34.5c3 -9.66699 6.16699 -17.5 9.5 -23.5c8.66699 -21.333 18.667 -37.333 30 -48c12 -10.667 25 -17 39 -19h61v-75h-46h-13z" />
    <glyph glyph-name="u" unicode="u" horiz-adv-x="590" 
d="M454 181l-540 -0.00292969l-1 75h120c-10.667 18.667 -16 41 -16 67c0 27.333 6 55 18 83l11.5 22c5 9.33301 11.833 21 20.5 35l12 -8c-3.33301 -6.66699 -6.33301 -13.167 -9 -19.5l-9 -20.5c-8.66699 -19.333 -13 -37.666 -13 -54.999c0 -34 18 -60.333 54 -79
c18.667 -9.33301 41.167 -16 67.5 -20s54 -6.33301 83 -7s58 -0.5 87 0.5s55.167 1.5 78.5 1.5v12c0 32 -4 58 -12 78c-8 20.667 -21.333 38.334 -40 53.001l33 70c13.333 -15.333 21 -25 23 -29c20 -33.333 30 -80.666 30 -141.999v-42h103v-75h-101zM321 78.9971l-34 -63
l-69 37l32 63z" />
    <glyph glyph-name="v" unicode="v" horiz-adv-x="311" 
d="M95 256c12 0 23.5039 2.66797 34.5039 8.00098s20.667 12.5 29 21.5s15.166 19.333 20.499 31s8 23.5 8 35.5c0 6.66699 -0.333008 13.334 -1 20.001s-2 13.667 -4 21s-4.83301 16.166 -8.5 26.499s-8.5 22.166 -14.5 35.499l18 10l18 -36.5
c4.66699 -9.66699 8 -17.167 10 -22.5c6 -14 12.167 -30.5 18.5 -49.5s8.5 -37.167 6.5 -54.5c-1.33301 -9.33301 -4.33301 -18 -9 -26s-12.334 -14.667 -23.001 -20h98v-75h-362l-1 75h104c0 13.333 -0.833008 27.333 -2.5 42s-4.83398 28.667 -9.50098 42
c-8.66699 20 -22.334 38.333 -41.001 55l33 74c6.66699 -8 12 -14.667 16 -20s6.66699 -9 8 -11c20.667 -33.333 31 -83 31 -149v-33h23z" />
    <glyph glyph-name="w" unicode="w" horiz-adv-x="510" 
d="M277 651l-33 -63l-70 37l32 63zM399 256l85.998 0.000976562v-75h-86h-9h-24c-19.333 0 -35 2.33301 -47 7c-13.333 4.66699 -25.333 11.667 -36 21c-7.33301 -5.33301 -13.833 -9.66602 -19.5 -12.999s-11.167 -6 -16.5 -8c-13.333 -4.66699 -33.666 -7 -60.999 -7h-28
c-16.667 0 -31.667 2.66699 -45 8c-11.333 4.66699 -23.333 11 -36 19c-13.333 -10.667 -26.333 -18 -39 -22c-5.33301 -2 -12.666 -3.33301 -21.999 -4s-20.333 -1 -33 -1h-85l-1 75h83c21.333 0 37.666 2 48.999 6c16.667 7.33301 25 20.666 25 39.999
c0 4 -0.166992 8.16699 -0.5 12.5s-0.833008 8.5 -1.5 12.5c0 4 -0.333008 8.33301 -1 13s-1.66699 9.66699 -3 15l17 26c4 -13.333 7.66699 -24.833 11 -34.5s6.33301 -17.5 9 -23.5c10 -21.333 20.333 -37.333 31 -48c12.667 -12.667 28.667 -19 48 -19h29
c22.667 0 38.667 3.33301 48 10c12 6.66699 18 18.667 18 36c0 4.66699 -0.166992 9 -0.5 13s-0.833008 8.33301 -1.5 13c-0.666992 4 -1.16699 8.16699 -1.5 12.5s-1.16602 9.16602 -2.49902 14.499l17 26l9 -41c8 -32.667 17.667 -55 29 -67
c8.66699 -10.667 21.667 -16 39 -16c8 0 14.333 2.33301 19 7s7 10.667 7 18c0 16 -5.66699 33.333 -17 52c-2.66699 2.66699 -10 12 -22 28l28 47c12 -18 20 -33.333 24 -46c6 -20 9 -46 9 -78v-29h4zM356.998 574.001l-33 -63l-70 37l33 62zM258.998 535.001l-33 -63
l-70 36l32 63z" />
    <glyph glyph-name="x" unicode="x" horiz-adv-x="396" 
d="M249 402c0 -19.333 -2.83203 -38.1699 -8.49902 -56.5029s-14.167 -37.166 -25.5 -56.499c29.333 -22 62.666 -33 99.999 -33h62v-75h-62c-28.667 0 -53 5 -73 15s-39.333 26.333 -58 49c-18.667 -22.667 -38 -39 -58 -49s-44.667 -15 -74 -15h-118l-1 75h118
c19.333 0 37.666 3 54.999 9s33 14.667 47 26c-17.333 23.333 -39.166 45.333 -65.499 66s-51.833 38.667 -76.5 54c5.33301 9.33301 13.5 18.5 24.5 27.5s20.5 14.833 28.5 17.5c22.667 -20 44 -41.167 64 -63.5s38.667 -46.166 56 -71.499c11.333 15.333 20 32.333 26 51
s8 38.334 6 59.001l31 1z" />
    <glyph glyph-name="y" unicode="y" horiz-adv-x="507" 
d="M397 256l86.002 -0.00292969v-75h-86c-8.66699 0 -14 -3 -16 -9s-3 -13.667 -3 -23s0.333008 -23.666 1 -42.999s2 -37.666 4 -54.999c1.33301 -17.333 3 -34.166 5 -50.499s3.66699 -33.166 5 -50.499c2 -20.667 3.33301 -39.667 4 -57s0.666992 -33 0 -47
c-0.666992 -28.667 -5.33398 -51.334 -14.001 -68.001c-8.66699 -18.667 -23 -30 -43 -34l-60 -11l-12 74l60 8c9.33301 0.666992 17.333 7 24 19c7.33301 15.333 9.33301 48 6 98c-7.33301 54.667 -13 102.834 -17 144.501s-6.66699 70.167 -8 85.5v18h-67
c-24.667 0 -49 0.833008 -73 2.5s-46.5 4.5 -67.5 8.5s-37.833 9.66699 -50.5 17c-13.333 -10.667 -26.333 -18 -39 -22c-5.33301 -2 -12.666 -3.33301 -21.999 -4s-20.333 -1 -33 -1h-36l-1 75h34c21.333 0 37.666 2 48.999 6c16.667 7.33301 25 20.666 25 39.999
c0 4 -0.166992 8.16699 -0.5 12.5s-0.833008 8.5 -1.5 12.5c0 4 -0.333008 8.33301 -1 13s-1.66699 9.66699 -3 15l17 26c4 -13.333 7.66699 -24.833 11 -34.5s6.33301 -17.5 9 -23.5c10 -22 24.833 -37.667 44.5 -47s41.834 -15.5 66.501 -18.5s50.167 -3.83301 76.5 -2.5
s51.166 2 74.499 2c8 0 14.333 2.33301 19 7s7 10.667 7 18c0 16 -5.66699 33.333 -17 52c-2.66699 2.66699 -10 12 -22 28l28 47c12 -18 20 -33.333 24 -46c3.33301 -10 5.66602 -24.833 6.99902 -44.5s2 -37.5 2 -53.5zM355.002 553.997l-33 -63l-70 37l33 62z
M257.002 514.997l-33 -63l-70 36l32 63z" />
    <glyph glyph-name="z" unicode="z" horiz-adv-x="526" 
d="M-66 181l-0.996094 75h176c3.33301 0 10.166 4 20.499 12s23.166 19 38.499 33l51.5 45.5c14.333 12.333 26.166 21.5 35.499 27.5c5.33301 4 10.333 7.5 15 10.5s9.33398 5.83301 14.001 8.5c-13.333 6 -28.5 12 -45.5 18s-33.333 11.5 -49 16.5l-42 13
c-12.333 3.66699 -20.5 6.16699 -24.5 7.5l-81 27v67l261 -110c13.333 -5.33301 25.666 -10.5 36.999 -15.5s21.5 -10.667 30.5 -17s17.167 -14 24.5 -23s14 -20.5 20 -34.5c-14 2 -27.333 3 -40 3c-10.667 0 -21.334 -0.833008 -32.001 -2.5s-21 -4.5 -31 -8.5
c-18.667 -6 -39.334 -16.333 -62.001 -31c-9.33301 -5.33301 -18.666 -12 -27.999 -20s-16.333 -17 -21 -27h297v-75h-564z" />
  </font>
</defs>
</svg>
